<?xml version="1.0" standalone="no"?>
<!DOCTYPE svg PUBLIC "-//W3C//DTD SVG 20010904//EN"
 "http://www.w3.org/TR/2001/REC-SVG-20010904/DTD/svg10.dtd">
<svg version="1.0" xmlns="http://www.w3.org/2000/svg"
 width="200.000000pt" height="200.000000pt" viewBox="0 0 200.000000 200.000000"
 preserveAspectRatio="xMidYMid meet">
<metadata>
Created by potrace 1.14, written by Peter Selinger 2001-2017
</metadata>
<g transform="translate(0.000000,200.000000) scale(0.100000,-0.100000)"
fill="#000000" stroke="none">
<path d="M898 1765 c-82 -19 -152 -48 -197 -82 -44 -34 -91 -110 -91 -147 0
-29 -14 -40 -263 -201 -239 -156 -262 -173 -265 -201 -2 -19 3 -36 15 -46 10
-8 186 -116 391 -238 256 -153 382 -223 402 -223 20 0 107 49 289 166 232 148
266 167 304 167 70 0 174 27 238 61 157 84 201 231 102 340 -46 51 -576 370
-652 393 -81 24 -195 28 -273 11z m247 -103 c66 -23 572 -326 608 -363 58 -62
24 -142 -85 -198 -56 -29 -79 -34 -159 -39 l-92 -5 -264 -169 -264 -169 -327
197 c-180 108 -332 202 -339 208 -9 8 49 50 228 165 131 85 243 159 248 164 5
5 7 16 4 23 -17 46 31 125 98 159 87 45 254 58 344 27z"/>
<path d="M1768 860 c-22 -22 -29 -38 -26 -59 4 -38 -28 -73 -91 -100 -51 -21
-162 -43 -208 -39 -35 2 -27 7 -314 -177 -132 -85 -243 -155 -245 -155 -2 0
-169 99 -369 220 -201 121 -374 220 -385 220 -25 0 -50 -37 -41 -61 8 -24 765
-479 795 -479 13 0 142 77 288 170 250 160 268 170 314 170 109 0 222 42 306
111 26 21 53 39 61 39 7 0 24 11 37 25 34 37 33 90 -4 121 -38 33 -80 31 -118
-6z"/>
</g>
</svg>
